<?xml version="1.0" encoding="utf-8"?>
<!-- Generator: Adobe Illustrator 26.0.1, SVG Export Plug-In . SVG Version: 6.00 Build 0)  -->
<svg version="1.1" id="Capa_1" xmlns="http://www.w3.org/2000/svg" xmlns:xlink="http://www.w3.org/1999/xlink" x="0px" y="0px"
	 viewBox="0 0 436.4 205.4" style="enable-background:new 0 0 436.4 205.4;" xml:space="preserve">
<style type="text/css">
	.st0{fill:#FFFFFF;}
</style>
<path class="st0" d="M12,89.3h-1.9V68.5H1.8v-1.8h18.4v1.8H12V89.3z"/>
<path class="st0" d="M49.9,89.3h-1.9V66.7h1.9v9.7H63v-9.7h1.9v22.6H63V78.2H49.9V89.3z"/>
<path class="st0" d="M110.3,89.3H95V66.7h14.8v1.8h-13v8.4h12.3v1.8H96.8v8.8h13.4V89.3z"/>
<path class="st0" d="M6,139.3H4.1v-22.6h2.8l11.9,20.5v-20.5h1.9v22.6H18L6,118.8V139.3z"/>
<path class="st0" d="M66.2,139.3H50.8v-22.6h14.8v1.8h-13v8.4H65v1.8H52.7v8.9h13.4V139.3z"/>
<path class="st0" d="M99.9,139.3h-2.9l-4.7-22.6h1.9l4.4,20.8l4.9-17.4h2.5l5,17.4l4.3-20.8h1.9l-4.7,22.6h-2.9l-4.9-17L99.9,139.3z
	"/>
</svg>
