<?xml version="1.0" encoding="utf-8"?>
<!-- Generator: Adobe Illustrator 26.0.1, SVG Export Plug-In . SVG Version: 6.00 Build 0)  -->
<svg version="1.1" id="Capa_1" xmlns="http://www.w3.org/2000/svg" xmlns:xlink="http://www.w3.org/1999/xlink" x="0px" y="0px"
	 viewBox="0 0 199.4 184" style="enable-background:new 0 0 199.4 184;" xml:space="preserve">
<style type="text/css">
	.st0{fill:#FFFFFF;}
</style>
<path class="st0" d="M9.3,19.1H7.8V2.5H1.2V1h14.7v1.5H9.3V19.1z"/>
<path class="st0" d="M34.8,19.1h-1.5V1h1.5v7.8h10.5V1h1.5v18.1h-1.5v-8.9H34.8V19.1z"/>
<path class="st0" d="M78.3,19.1H66.1V1H78v1.5H67.6v6.7h9.8v1.4h-9.8v7.1h10.8V19.1z"/>
<path class="st0" d="M118.2,19.1h-1.5V1h2.2l9.6,16.4V1h1.5v18.1h-2.2l-9.6-16.4V19.1z"/>
<path class="st0" d="M161.5,19.1h-12.2V1h11.9v1.5h-10.4v6.7h9.8v1.4h-9.8v7.1h10.8V19.1z"/>
<path class="st0" d="M183.7,19.1h-2.3L177.6,1h1.5l3.5,16.6l3.9-13.9h2l4,13.9L196,1h1.5l-3.8,18.1h-2.3l-3.9-13.6L183.7,19.1z"/>
</svg>
