<svg xmlns="http://www.w3.org/2000/svg" viewBox="0 0 139.94 27.89"><defs><style>.a{isolation:isolate;}.b{fill:#1c69d4;}.c{fill:#fff;}</style></defs><g class="a"><rect class="b" x="0.47" y="0.44" width="139" height="27"/></g><path class="c" d="M27.21,19.71h-2.1V9.15h4.53A3.64,3.64,0,0,1,32.3,10a3.38,3.38,0,0,1,.91,2.53,3.4,3.4,0,0,1-1,2.65,3.92,3.92,0,0,1-2.57.85c-.42,0-1.23,0-2.45,0Zm0-5.6c1.08,0,1.82,0,2.24,0a2,2,0,0,0,1.28-.38,1.49,1.49,0,0,0,.35-1.13,1.54,1.54,0,0,0-.36-1.14,2,2,0,0,0-1.3-.3H27.21Z"/><path class="c" d="M36.6,11.31h-2V9.15h2Zm0,8.4h-2V12.32h2Z"/><path class="c" d="M45.15,19.71h-2v-.84a7.63,7.63,0,0,1-.65.46,3.41,3.41,0,0,1-1.86.62,2.15,2.15,0,0,1-1.92-1.15,5.42,5.42,0,0,1-.57-2.75,5.42,5.42,0,0,1,.56-2.74,2.53,2.53,0,0,1,.94-.93,2.82,2.82,0,0,1,1.38-.3,8.14,8.14,0,0,1,2.09.4V9.15h2Zm-2-2.72v-2.7a5.65,5.65,0,0,0-1.57-.35,1.08,1.08,0,0,0-1.1.57A3.76,3.76,0,0,0,40.21,16a4.3,4.3,0,0,0,.2,1.51.77.77,0,0,0,.81.45,2.65,2.65,0,0,0,1.26-.56Z"/><path class="c" d="M53.22,19.67a19.84,19.84,0,0,1-2.84.28,4.87,4.87,0,0,1-1.9-.3,2.72,2.72,0,0,1-1.16-.92,4.52,4.52,0,0,1-.63-2.65,5.35,5.35,0,0,1,.56-2.7,3.18,3.18,0,0,1,2.94-1.3A3.33,3.33,0,0,1,53,13.13a3.62,3.62,0,0,1,.57,2.21,7.91,7.91,0,0,1-.14,1.51H48.7a1.31,1.31,0,0,0,.22.76,2,2,0,0,0,1.67.57,18.32,18.32,0,0,0,2.63-.25ZM48.7,15.4h2.91a2.25,2.25,0,0,0,0-.38,1.38,1.38,0,0,0-.21-.8,1.4,1.4,0,0,0-1.24-.49A1.34,1.34,0,0,0,49,14.3,2.06,2.06,0,0,0,48.7,15.4Z"/><path class="c" d="M62.42,19.81a11.36,11.36,0,0,1-2.72-.33,1.53,1.53,0,0,1-1.07-.89,7.12,7.12,0,0,1-.18-2.05V10.36h2v2h2.29v1.87H60.5v2.26a5.22,5.22,0,0,0,0,.86.65.65,0,0,0,.49.49,6.75,6.75,0,0,0,1.38.17Z"/><path class="c" d="M70.51,19.36a16.67,16.67,0,0,1-3.8.59,2.79,2.79,0,0,1-2.13-.79,3.68,3.68,0,0,1-.68-2.5V12.32h2v4.24a2.16,2.16,0,0,0,.2,1.17A1.07,1.07,0,0,0,67,18a6.29,6.29,0,0,0,1.47-.18v-5.5h2.05Z"/><path class="c" d="M79.05,12.08a3.41,3.41,0,0,1,3,1.29A4.56,4.56,0,0,1,82.69,16,4.34,4.34,0,0,1,82,18.59a3.16,3.16,0,0,1-1.18,1,4.08,4.08,0,0,1-1.81.35,4.22,4.22,0,0,1-1.83-.33,3,3,0,0,1-1.16-1A4.54,4.54,0,0,1,75.41,16,4.66,4.66,0,0,1,76,13.42,3.41,3.41,0,0,1,79.05,12.08Zm0,1.87a1.35,1.35,0,0,0-1.28.59A3.2,3.2,0,0,0,77.48,16a3,3,0,0,0,.28,1.42,1.33,1.33,0,0,0,1.29.62,1.43,1.43,0,0,0,1.23-.56A2.8,2.8,0,0,0,80.61,16a2.59,2.59,0,0,0-.37-1.54A1.41,1.41,0,0,0,79.05,14Z"/><path class="c" d="M86.27,19.71h-2V12.32A4.68,4.68,0,0,1,84.38,11a2.05,2.05,0,0,1,.83-1.1,8.6,8.6,0,0,1,3-1v2a4.94,4.94,0,0,0-1.61.51.74.74,0,0,0-.31.51,2.81,2.81,0,0,0,0,.45h2v1.87h-2Z"/><path class="c" d="M95.17,19.67a19.58,19.58,0,0,1-2.84.28,4.85,4.85,0,0,1-1.89-.3,2.67,2.67,0,0,1-1.16-.92,4.52,4.52,0,0,1-.63-2.65,5.35,5.35,0,0,1,.56-2.7,3.16,3.16,0,0,1,2.94-1.3A3.32,3.32,0,0,1,95,13.13a3.55,3.55,0,0,1,.58,2.21,7.91,7.91,0,0,1-.14,1.51H90.65a1.31,1.31,0,0,0,.23.76,1.93,1.93,0,0,0,1.66.57,18.2,18.2,0,0,0,2.63-.25ZM90.65,15.4h2.91a2.25,2.25,0,0,0,0-.38,1.2,1.2,0,0,0-1.44-1.29,1.35,1.35,0,0,0-1.25.57A2.16,2.16,0,0,0,90.65,15.4Z"/><path class="c" d="M99.09,19.71h-2V12.32h2v.84a7.4,7.4,0,0,1,.93-.58,6.23,6.23,0,0,1,1.68-.45v2.06a7.83,7.83,0,0,0-1.61.42,5.22,5.22,0,0,0-1,.52Z"/><path class="c" d="M106.6,19.81a11.36,11.36,0,0,1-2.72-.33,1.51,1.51,0,0,1-1.06-.89,7.12,7.12,0,0,1-.18-2.05V10.36h2v2H107v1.87h-2.3v2.26a4.07,4.07,0,0,0,.06.86.63.63,0,0,0,.49.49,6.73,6.73,0,0,0,1.37.17Z"/><path class="c" d="M114.8,19.71h-2v-.95c-.13.1-.36.28-.72.53a4.36,4.36,0,0,1-.86.49,2.32,2.32,0,0,1-.92.17,2.09,2.09,0,0,1-1.91-1.1,5.1,5.1,0,0,1-.56-2.67,5.59,5.59,0,0,1,.58-2.83,3,3,0,0,1,2.83-1.27,6.65,6.65,0,0,1,1.59.19c.53.13,1.19.34,2,.62Zm-2-2.9V14.19a4.31,4.31,0,0,0-1.37-.29,1.26,1.26,0,0,0-1.24.6,4.07,4.07,0,0,0-.26,1.68,4.3,4.3,0,0,0,.18,1.39.68.68,0,0,0,.7.44,2.56,2.56,0,0,0,1.29-.64C112.33,17.17,112.56,17,112.76,16.81Z"/></svg>