<svg xmlns="http://www.w3.org/2000/svg" viewBox="0 0 136.85 14.17"><defs><style>.a{fill:#fff;}</style></defs><path class="a" d="M24.74,2.94a3.74,3.74,0,0,1,.31-1.71A1.41,1.41,0,0,1,26.47.55a4,4,0,0,1,.74.09,5.7,5.7,0,0,1,.62.15v.37A5.8,5.8,0,0,0,27.11,1a2.61,2.61,0,0,0-.64-.08,1.05,1.05,0,0,0-1.12.59,3.58,3.58,0,0,0-.23,1.44,3.8,3.8,0,0,0,.18,1.32,1.09,1.09,0,0,0,1.15.66,6.66,6.66,0,0,0,1.38-.2v.37a6.55,6.55,0,0,1-1.38.19A1.4,1.4,0,0,1,25,4.43,4.07,4.07,0,0,1,24.74,2.94Z"/><path class="a" d="M28.39,3.62a2.84,2.84,0,0,1,.16-1,1.14,1.14,0,0,1,1.2-.69,1.22,1.22,0,0,1,1.07.44,2.17,2.17,0,0,1,.29,1.25,2.5,2.5,0,0,1-.21,1.1,1.18,1.18,0,0,1-1.15.58,1.16,1.16,0,0,1-1.1-.49A2.3,2.3,0,0,1,28.39,3.62Zm.38,0a2.12,2.12,0,0,0,.18.95.79.79,0,0,0,.8.37.83.83,0,0,0,.79-.36,2.13,2.13,0,0,0,.19-1,1.93,1.93,0,0,0-.16-.91.79.79,0,0,0-.82-.41.81.81,0,0,0-.84.45A2.21,2.21,0,0,0,28.77,3.61Z"/><path class="a" d="M32.35,2v.24a3.1,3.1,0,0,1,1.15-.34.87.87,0,0,1,.77.29,1.39,1.39,0,0,1,.21.92V5.18h-.37V3.12A1.26,1.26,0,0,0,34,2.45a.56.56,0,0,0-.49-.19,3.21,3.21,0,0,0-1.15.36V5.18H32V2Z"/><path class="a" d="M35.32,2.78a.77.77,0,0,1,.29-.66,1.33,1.33,0,0,1,.85-.21,5,5,0,0,1,1.09.19v.35a5.74,5.74,0,0,0-1.09-.19,1,1,0,0,0-.59.12.45.45,0,0,0-.18.4.41.41,0,0,0,.13.35,1.94,1.94,0,0,0,.45.18l.6.19a1.35,1.35,0,0,1,.58.29.79.79,0,0,1,.22.57.8.8,0,0,1-.34.7,1.45,1.45,0,0,1-.9.22,4.92,4.92,0,0,1-1.08-.15V4.78a5.73,5.73,0,0,0,1.08.15,1.18,1.18,0,0,0,.63-.12.47.47,0,0,0,.24-.43.44.44,0,0,0-.12-.33,1.27,1.27,0,0,0-.48-.22l-.55-.17a1.68,1.68,0,0,1-.6-.28A.76.76,0,0,1,35.32,2.78Z"/><path class="a" d="M38.88,2V4a1.38,1.38,0,0,0,.12.75c.11.15.27.2.57.2a3.14,3.14,0,0,0,1-.17V2H41V5a4.91,4.91,0,0,1-1.38.25A1,1,0,0,1,38.71,5a1.61,1.61,0,0,1-.2-1V2Z"/><path class="a" d="M42.31,2v.25a2.58,2.58,0,0,1,1.07-.35.93.93,0,0,1,.67.19.57.57,0,0,1,.15.22,2.65,2.65,0,0,1,1.14-.41.84.84,0,0,1,.75.28,1.48,1.48,0,0,1,.2.94V5.18h-.37v-2a1.29,1.29,0,0,0-.11-.67.48.48,0,0,0-.47-.2,2.58,2.58,0,0,0-1,.39V5.18h-.37V3a1.15,1.15,0,0,0-.09-.59.5.5,0,0,0-.46-.18,2.56,2.56,0,0,0-1.07.38V5.18h-.37V2Z"/><path class="a" d="M47.16,3.62a2.84,2.84,0,0,1,.16-1,1.14,1.14,0,0,1,1.2-.69,1.22,1.22,0,0,1,1.07.44,2.16,2.16,0,0,1,.28,1.25,2.36,2.36,0,0,1-.21,1.1,1.44,1.44,0,0,1-2.24.09A2.3,2.3,0,0,1,47.16,3.62Zm.37,0a2.12,2.12,0,0,0,.18.95.81.81,0,0,0,.81.37.83.83,0,0,0,.79-.36,2.13,2.13,0,0,0,.19-1,1.93,1.93,0,0,0-.16-.91,1,1,0,0,0-1.66,0A2.2,2.2,0,0,0,47.53,3.61Z"/><path class="a" d="M52.16,3.61a2.28,2.28,0,0,1,.21-1.13,1.17,1.17,0,0,1,1.15-.57,1.15,1.15,0,0,1,1.11.54,1.43,1.43,0,0,1,.15.7,3.67,3.67,0,0,1-.06.61H52.53a1.62,1.62,0,0,0,.15.76c.16.3.42.41.91.41a6.66,6.66,0,0,0,1-.12v.35a6,6,0,0,1-1,.12c-.7,0-1-.19-1.21-.53A2.12,2.12,0,0,1,52.16,3.61Zm.37-.17h1.85a2.69,2.69,0,0,0,0-.31,1,1,0,0,0-.1-.5,1,1,0,0,0-1.62.05A1.94,1.94,0,0,0,52.53,3.44Z"/><path class="a" d="M55.63,5.18V.66H56V5.18Z"/><path class="a" d="M57.09,2.48a1.16,1.16,0,0,1,1.14-.57,1.14,1.14,0,0,1,1.11.54,1.43,1.43,0,0,1,.15.7,3.67,3.67,0,0,1-.06.61H57.25a1.75,1.75,0,0,0,.14.76c.16.3.42.41.92.41a6.66,6.66,0,0,0,1-.12v.35a6.08,6.08,0,0,1-1,.12c-.7,0-1-.19-1.22-.53a2.13,2.13,0,0,1-.21-1.14A2.28,2.28,0,0,1,57.09,2.48Zm2,1a2.69,2.69,0,0,0,0-.31,1,1,0,0,0-.1-.5,1,1,0,0,0-1.63.05,1.92,1.92,0,0,0-.14.76ZM58.53.66H59l-.73.82h-.47Z"/><path class="a" d="M60.36,2.59c.18-.45.47-.68,1.19-.68a3.41,3.41,0,0,1,.94.19v.35a4,4,0,0,0-.94-.19c-.45,0-.68.09-.83.44a2.6,2.6,0,0,0-.12.91,2.19,2.19,0,0,0,.18,1,.76.76,0,0,0,.77.36,4.85,4.85,0,0,0,.94-.15v.35a4.73,4.73,0,0,1-.94.15,1.07,1.07,0,0,1-1.08-.5,2.54,2.54,0,0,1-.24-1.16A3.15,3.15,0,0,1,60.36,2.59Z"/><path class="a" d="M63.61,1.21v.84h1V2.4h-1V4a3.87,3.87,0,0,0,0,.53.29.29,0,0,0,.21.28,3,3,0,0,0,.59.08v.35a3.73,3.73,0,0,1-.77-.11.47.47,0,0,1-.36-.32A2.64,2.64,0,0,1,63.24,4V1.21Z"/><path class="a" d="M65.15,2h.37v.4a3,3,0,0,1,.42-.26,2.9,2.9,0,0,1,.7-.21v.37a2.79,2.79,0,0,0-.58.18,3.47,3.47,0,0,0-.54.31V5.18h-.37Z"/><path class="a" d="M67.2,1.45V.66h.39v.79Zm0,3.73V2h.37V5.18Z"/><path class="a" d="M68.59,2.59c.17-.45.47-.68,1.19-.68a3.49,3.49,0,0,1,.94.19v.35a4,4,0,0,0-.94-.19c-.45,0-.68.09-.83.44a2.6,2.6,0,0,0-.12.91,2.19,2.19,0,0,0,.18,1,.76.76,0,0,0,.77.36,5,5,0,0,0,.94-.15v.35a4.73,4.73,0,0,1-.94.15,1.07,1.07,0,0,1-1.08-.5,2.41,2.41,0,0,1-.24-1.16A3.15,3.15,0,0,1,68.59,2.59Z"/><path class="a" d="M71.35,3.62a2.84,2.84,0,0,1,.16-1,1.14,1.14,0,0,1,1.2-.69,1.22,1.22,0,0,1,1.07.44,2.16,2.16,0,0,1,.28,1.25,2.36,2.36,0,0,1-.21,1.1,1.44,1.44,0,0,1-2.24.09A2.3,2.3,0,0,1,71.35,3.62Zm.38,0a2.12,2.12,0,0,0,.18.95.79.79,0,0,0,.8.37.83.83,0,0,0,.79-.36,2.13,2.13,0,0,0,.19-1,1.93,1.93,0,0,0-.16-.91.8.8,0,0,0-.82-.41.81.81,0,0,0-.84.45A2.21,2.21,0,0,0,71.73,3.61Z"/><path class="a" d="M76.48,2.59c.18-.45.47-.68,1.19-.68a3.41,3.41,0,0,1,.94.19v.35a3.92,3.92,0,0,0-.94-.19c-.45,0-.68.09-.83.44a2.6,2.6,0,0,0-.12.91,2.19,2.19,0,0,0,.18,1,.77.77,0,0,0,.77.36,4.85,4.85,0,0,0,.94-.15v.35a4.62,4.62,0,0,1-.94.15,1.07,1.07,0,0,1-1.08-.5,2.54,2.54,0,0,1-.24-1.16A3.15,3.15,0,0,1,76.48,2.59Z"/><path class="a" d="M79.25,3.62a2.63,2.63,0,0,1,.16-1,1.13,1.13,0,0,1,1.19-.69,1.2,1.2,0,0,1,1.07.44A2.17,2.17,0,0,1,82,3.6a2.5,2.5,0,0,1-.21,1.1,1.18,1.18,0,0,1-1.15.58,1.15,1.15,0,0,1-1.09-.49A2.3,2.3,0,0,1,79.25,3.62Zm.37,0a2.12,2.12,0,0,0,.18.95.8.8,0,0,0,.8.37.85.85,0,0,0,.8-.36,2.13,2.13,0,0,0,.19-1,1.93,1.93,0,0,0-.16-.91.81.81,0,0,0-.83-.41.79.79,0,0,0-.83.45A2.2,2.2,0,0,0,79.62,3.61Z"/><path class="a" d="M83.2,2v.25a2.66,2.66,0,0,1,1.08-.35.9.9,0,0,1,.66.19.78.78,0,0,1,.16.22,2.56,2.56,0,0,1,1.14-.41.84.84,0,0,1,.75.28,1.48,1.48,0,0,1,.2.94V5.18h-.37v-2a1.29,1.29,0,0,0-.11-.67.48.48,0,0,0-.47-.2,2.62,2.62,0,0,0-1,.39V5.18h-.36V3a1,1,0,0,0-.1-.59.48.48,0,0,0-.45-.18,2.65,2.65,0,0,0-1.08.38V5.18h-.36V2Z"/><path class="a" d="M88.54.66V2.32L89,2.08a1.79,1.79,0,0,1,.68-.17.9.9,0,0,1,.9.52,2.52,2.52,0,0,1,.21,1.15,2.14,2.14,0,0,1-.26,1.17,1.13,1.13,0,0,1-1.07.53,3,3,0,0,1-.66-.07c-.2,0-.43-.1-.63-.16V.66Zm.39,4.21a2.29,2.29,0,0,0,.54.06.78.78,0,0,0,.75-.38,1.79,1.79,0,0,0,.21-1,2.32,2.32,0,0,0-.15-.94.6.6,0,0,0-.59-.38,1.29,1.29,0,0,0-.56.14c-.23.1-.42.2-.59.29V4.78Z"/><path class="a" d="M91.67,1.45V.66h.39v.79Zm0,3.73V2h.37V5.18Z"/><path class="a" d="M93.41,2v.24a3.1,3.1,0,0,1,1.15-.34.87.87,0,0,1,.77.29,1.39,1.39,0,0,1,.21.92V5.18h-.37V3.12a1.26,1.26,0,0,0-.12-.67.56.56,0,0,0-.49-.19,3.21,3.21,0,0,0-1.15.36V5.18H93V2Z"/><path class="a" d="M96.66,2.41a1.14,1.14,0,0,1,1.09-.5A3.9,3.9,0,0,1,99,2.23V5.18h-.37V4.64a3,3,0,0,1-.37.31,1.24,1.24,0,0,1-.78.33.86.86,0,0,1-.87-.5,3,3,0,0,1-.2-1.2A2.3,2.3,0,0,1,96.66,2.41Zm.25,2.15a.57.57,0,0,0,.57.37,1.12,1.12,0,0,0,.62-.27l.53-.45V2.47a2.76,2.76,0,0,0-.88-.21.79.79,0,0,0-.79.38,2.13,2.13,0,0,0-.18.94A2.86,2.86,0,0,0,96.91,4.56Z"/><path class="a" d="M100.1,2.41a1.05,1.05,0,0,1,1-.5,3.92,3.92,0,0,1,1,.2V.66h.36V5.18h-.36V4.76l-.43.29a1.53,1.53,0,0,1-.75.23.85.85,0,0,1-.88-.5,3,3,0,0,1-.2-1.19A2.57,2.57,0,0,1,100.1,2.41Zm.15,1.18a2.56,2.56,0,0,0,.14,1,.53.53,0,0,0,.57.38,1.2,1.2,0,0,0,.61-.2,5.07,5.07,0,0,0,.57-.39V2.48a3.61,3.61,0,0,0-1-.22.68.68,0,0,0-.71.37A2.3,2.3,0,0,0,100.25,3.59Z"/><path class="a" d="M103.38,3.62a2.63,2.63,0,0,1,.16-1,1.14,1.14,0,0,1,1.2-.69,1.19,1.19,0,0,1,1.06.44,2.17,2.17,0,0,1,.29,1.25,2.5,2.5,0,0,1-.21,1.1,1.44,1.44,0,0,1-2.24.09A2.3,2.3,0,0,1,103.38,3.62Zm.37,0a2.12,2.12,0,0,0,.18.95.81.81,0,0,0,.81.37.84.84,0,0,0,.79-.36,2.13,2.13,0,0,0,.19-1,1.93,1.93,0,0,0-.16-.91,1,1,0,0,0-1.66,0A2.2,2.2,0,0,0,103.75,3.61Z"/><path class="a" d="M108.76,1.1a1.61,1.61,0,0,1,.92-.57V.9a1.15,1.15,0,0,0-.6.43,1.53,1.53,0,0,0-.17.85V4.79a1.51,1.51,0,0,0,.17.85,1.17,1.17,0,0,0,.6.44v.36a1.61,1.61,0,0,1-.92-.57,1.61,1.61,0,0,1-.22-1V2.1A1.63,1.63,0,0,1,108.76,1.1Z"/><path class="a" d="M110.5,5.18V.66h.37V2.82L113,.66h.53l-2.23,2.23,2.43,2.29h-.56L110.87,3v2.2Z"/><path class="a" d="M114.28.66l.87,4.16,1-3.48h.49l1,3.48.87-4.16h.38l-.94,4.52h-.58l-1-3.4-1,3.4h-.57L113.9.66Z"/><path class="a" d="M119.93.66V2.22A3.12,3.12,0,0,1,121,1.91a.94.94,0,0,1,.8.29,1.4,1.4,0,0,1,.2.92V5.18h-.37V3.12a1.14,1.14,0,0,0-.13-.68.56.56,0,0,0-.5-.18,3.07,3.07,0,0,0-1.11.33V5.18h-.37V.66Z"/><path class="a" d="M122.61,5.18,124.29.66h.4L123,5.18Z"/><path class="a" d="M126.06,5.18V1l-1.1.35V1l1.47-.47V5.18Z"/><path class="a" d="M127.63,2.92a3.63,3.63,0,0,1,.29-1.83A1.22,1.22,0,0,1,129,.55a1.21,1.21,0,0,1,1.12.54,3.63,3.63,0,0,1,.32,1.79,3.92,3.92,0,0,1-.3,1.84,1.47,1.47,0,0,1-2.22.1A3.53,3.53,0,0,1,127.63,2.92Zm.38,0a3.49,3.49,0,0,0,.25,1.68.86.86,0,0,0,.79.32.85.85,0,0,0,.83-.43,4.1,4.1,0,0,0,.21-1.6,3.37,3.37,0,0,0-.26-1.61A.86.86,0,0,0,129,.91a.93.93,0,0,0-.77.33A3.18,3.18,0,0,0,128,2.92Z"/><path class="a" d="M131.56,2.92a3.63,3.63,0,0,1,.29-1.83A1.22,1.22,0,0,1,133,.55a1.21,1.21,0,0,1,1.12.54,3.63,3.63,0,0,1,.32,1.79,3.92,3.92,0,0,1-.3,1.84,1.47,1.47,0,0,1-2.22.1A3.53,3.53,0,0,1,131.56,2.92Zm.38,0a3.49,3.49,0,0,0,.25,1.68.86.86,0,0,0,.79.32.85.85,0,0,0,.83-.43,4.1,4.1,0,0,0,.21-1.6,3.37,3.37,0,0,0-.26-1.61A.86.86,0,0,0,133,.91a.93.93,0,0,0-.77.33A3.18,3.18,0,0,0,131.94,2.92Z"/><path class="a" d="M135.15.9V.53a1.61,1.61,0,0,1,.92.57,1.63,1.63,0,0,1,.22,1V4.87a1.61,1.61,0,0,1-.22,1,1.61,1.61,0,0,1-.92.57V6.08a1.16,1.16,0,0,0,.61-.44,1.51,1.51,0,0,0,.16-.85V2.18a1.53,1.53,0,0,0-.16-.85A1.14,1.14,0,0,0,135.15.9Z"/><path class="a" d="M1.63,12.38V8.24l-1.1.35V8.21L2,7.74v4.64Z"/><path class="a" d="M3.18,10.77a3,3,0,0,1,.66-2.23A3.69,3.69,0,0,1,5.7,7.78v.37a3.12,3.12,0,0,0-1.55.62,1.55,1.55,0,0,0-.5,1l.79,0a1.57,1.57,0,0,1,1.23.38A1.32,1.32,0,0,1,6,11a1.58,1.58,0,0,1-.27,1,1.27,1.27,0,0,1-1.14.49A1.2,1.2,0,0,1,3.44,12,2.22,2.22,0,0,1,3.18,10.77Zm.39,0a1.91,1.91,0,0,0,.18,1,.89.89,0,0,0,.82.37.94.94,0,0,0,.82-.32,1.24,1.24,0,0,0,.2-.77,1,1,0,0,0-.21-.68,1.24,1.24,0,0,0-1-.27l-.81,0A5.58,5.58,0,0,0,3.57,10.77Z"/><path class="a" d="M6.8,13.42A5,5,0,0,0,7,12.08v-.52h.46v.67a3,3,0,0,1-.29,1.19Z"/><path class="a" d="M8.45,11.21a1.21,1.21,0,0,1,.31-.83,2.21,2.21,0,0,1,.4-.36.9.9,0,0,1-.38-.32,1.23,1.23,0,0,1-.18-.76A1.06,1.06,0,0,1,9,8a1.54,1.54,0,0,1,1-.29,1.4,1.4,0,0,1,1.11.43,1.13,1.13,0,0,1,.25.76,1.25,1.25,0,0,1-.25.78,3.92,3.92,0,0,1-.34.37,1.71,1.71,0,0,1,.44.3,1.3,1.3,0,0,1-.07,1.72,1.55,1.55,0,0,1-1.16.37,1.79,1.79,0,0,1-1.14-.29A1.15,1.15,0,0,1,8.45,11.21Zm.63.69a1.38,1.38,0,0,0,.9.22,1.38,1.38,0,0,0,.82-.2.82.82,0,0,0,.32-.71.74.74,0,0,0-.41-.72,5.47,5.47,0,0,0-1.19-.34,2.88,2.88,0,0,0-.45.42,1,1,0,0,0-.23.64A.8.8,0,0,0,9.08,11.9Zm-.1-3c0,.36.06.59.27.71a5.82,5.82,0,0,0,1.16.32,4.08,4.08,0,0,0,.37-.42,1,1,0,0,0,.2-.61.8.8,0,0,0-.2-.57A1.08,1.08,0,0,0,10,8.11a1.11,1.11,0,0,0-.79.24A.73.73,0,0,0,9,8.94Z"/><path class="a" d="M14,11v-.37H15.6V11Z"/><path class="a" d="M18.66,12.38V8.24l-1.09.35V8.21L19,7.74v4.64Z"/><path class="a" d="M20.22,11.21a1.21,1.21,0,0,1,.31-.83,2.6,2.6,0,0,1,.4-.36.9.9,0,0,1-.38-.32,1.23,1.23,0,0,1-.18-.76,1.08,1.08,0,0,1,.39-.9,1.54,1.54,0,0,1,1-.29,1.4,1.4,0,0,1,1.11.43,1.13,1.13,0,0,1,.25.76,1.25,1.25,0,0,1-.25.78,3.92,3.92,0,0,1-.34.37,1.55,1.55,0,0,1,.44.3,1.14,1.14,0,0,1,.3.82,1.22,1.22,0,0,1-.36.9,1.59,1.59,0,0,1-1.17.37,1.79,1.79,0,0,1-1.14-.29A1.15,1.15,0,0,1,20.22,11.21Zm.63.69a1.38,1.38,0,0,0,.9.22,1.36,1.36,0,0,0,.82-.2.82.82,0,0,0,.32-.71.74.74,0,0,0-.41-.72,5.53,5.53,0,0,0-1.18-.34,2.92,2.92,0,0,0-.46.42,1,1,0,0,0-.23.64A.83.83,0,0,0,20.85,11.9Zm-.1-3c0,.36.06.59.28.71a5.51,5.51,0,0,0,1.15.32,4.08,4.08,0,0,0,.37-.42,1,1,0,0,0,.2-.61.8.8,0,0,0-.2-.57,1.08,1.08,0,0,0-.79-.26,1.11,1.11,0,0,0-.79.24A.76.76,0,0,0,20.75,8.94Z"/><path class="a" d="M24.2,13.42a5,5,0,0,0,.15-1.34v-.52h.46v.67a3,3,0,0,1-.29,1.19Z"/><path class="a" d="M25.77,12c.62-.68,1.56-1.76,1.81-2.08a1.67,1.67,0,0,0,.51-1.05.69.69,0,0,0-.18-.54,1,1,0,0,0-.73-.21A5.32,5.32,0,0,0,26,8.34V8a5.35,5.35,0,0,1,1.21-.22,1.31,1.31,0,0,1,1.06.36,1.09,1.09,0,0,1,.24.75,2,2,0,0,1-.58,1.28c-.62.75-1.36,1.56-1.65,1.88h2.4v.36H25.77Z"/><path class="a" d="M29.46,12.38v-.82H30v.82Z"/><path class="a" d="M33.81,7.86h.49L36,12.38h-.4l-.46-1.2H32.94l-.45,1.2H32.1Zm-.74,3H35l-1-2.58Z"/><path class="a" d="M36.94,9.21v2a1.36,1.36,0,0,0,.12.75c.11.15.27.2.57.2a3.14,3.14,0,0,0,1-.17V9.21H39v3a4.85,4.85,0,0,1-1.38.25,1,1,0,0,1-.86-.31,1.61,1.61,0,0,1-.2-1v-2Z"/><path class="a" d="M40.36,8.41v.84h1V9.6h-1v1.58a3.87,3.87,0,0,0,0,.53.3.3,0,0,0,.22.28,2.8,2.8,0,0,0,.59.08v.35a3.84,3.84,0,0,1-.78-.11.46.46,0,0,1-.35-.32,2.61,2.61,0,0,1-.06-.81V8.41Z"/><path class="a" d="M41.79,10.82a2.85,2.85,0,0,1,.15-1,1.14,1.14,0,0,1,1.2-.69,1.2,1.2,0,0,1,1.07.44,2.17,2.17,0,0,1,.29,1.25,2.53,2.53,0,0,1-.21,1.1,1.18,1.18,0,0,1-1.15.58A1.17,1.17,0,0,1,42,12,2.42,2.42,0,0,1,41.79,10.82Zm.37,0a2.12,2.12,0,0,0,.18.95.8.8,0,0,0,.8.37.81.81,0,0,0,.79-.36,2,2,0,0,0,.2-1A1.81,1.81,0,0,0,44,9.87a.78.78,0,0,0-.82-.41.81.81,0,0,0-.84.45A2.21,2.21,0,0,0,42.16,10.81Z"/><path class="a" d="M45.74,9.21v.24a3.1,3.1,0,0,1,1.15-.34.9.9,0,0,1,.78.29,1.45,1.45,0,0,1,.2.92v2.06H47.5V10.32a1.17,1.17,0,0,0-.12-.67.56.56,0,0,0-.49-.19,3.21,3.21,0,0,0-1.15.36v2.56h-.37V9.21Z"/><path class="a" d="M48.74,10.82a2.63,2.63,0,0,1,.16-1,1.14,1.14,0,0,1,1.2-.69,1.19,1.19,0,0,1,1.06.44,2.17,2.17,0,0,1,.29,1.25,2.53,2.53,0,0,1-.21,1.1A1.44,1.44,0,0,1,49,12,2.3,2.3,0,0,1,48.74,10.82Zm.37,0a2.12,2.12,0,0,0,.18.95.81.81,0,0,0,.81.37.82.82,0,0,0,.79-.36,2.13,2.13,0,0,0,.19-1,1.93,1.93,0,0,0-.16-.91,1,1,0,0,0-1.66,0A2.2,2.2,0,0,0,49.11,10.81Z"/><path class="a" d="M52.69,9.21v.25a2.66,2.66,0,0,1,1.08-.35.88.88,0,0,1,.66.19.78.78,0,0,1,.16.22,2.6,2.6,0,0,1,1.14-.41.84.84,0,0,1,.75.28,1.48,1.48,0,0,1,.2.94v2.05h-.37V10.33a1.29,1.29,0,0,0-.11-.67.48.48,0,0,0-.47-.2,2.52,2.52,0,0,0-1,.39v2.53h-.37V10.23a1,1,0,0,0-.1-.59.48.48,0,0,0-.45-.18,2.65,2.65,0,0,0-1.08.38v2.54h-.36V9.21Z"/><path class="a" d="M57.53,8.68l.71-.82h.48L58,8.68Zm.14,3.7V9.21H58v3.17Z"/><path class="a" d="M59.16,9.61a1.14,1.14,0,0,1,1.09-.5,3.9,3.9,0,0,1,1.25.32v3h-.36v-.54a4.23,4.23,0,0,1-.38.31,1.24,1.24,0,0,1-.78.33.86.86,0,0,1-.87-.5,3,3,0,0,1-.2-1.2A2.3,2.3,0,0,1,59.16,9.61Zm.25,2.15a.57.57,0,0,0,.57.37,1,1,0,0,0,.62-.27l.54-.45V9.67a2.88,2.88,0,0,0-.89-.21.79.79,0,0,0-.79.38,2.13,2.13,0,0,0-.18.94A2.86,2.86,0,0,0,59.41,11.76Z"/><path class="a" d="M64,9.79c.17-.45.47-.68,1.19-.68a3.49,3.49,0,0,1,.94.19v.35a4,4,0,0,0-.94-.19c-.45,0-.68.09-.83.44a2.6,2.6,0,0,0-.12.91,2.19,2.19,0,0,0,.18,1,.76.76,0,0,0,.77.36,4.85,4.85,0,0,0,.94-.15v.35a4.73,4.73,0,0,1-.94.15,1.07,1.07,0,0,1-1.08-.5,2.41,2.41,0,0,1-.24-1.16A3.15,3.15,0,0,1,64,9.79Z"/><path class="a" d="M66.81,10.82a2.85,2.85,0,0,1,.15-1,1.14,1.14,0,0,1,1.2-.69,1.2,1.2,0,0,1,1.07.44,2.17,2.17,0,0,1,.29,1.25,2.53,2.53,0,0,1-.21,1.1,1.18,1.18,0,0,1-1.15.58,1.17,1.17,0,0,1-1.1-.49A2.42,2.42,0,0,1,66.81,10.82Zm.37,0a2.12,2.12,0,0,0,.18.95.8.8,0,0,0,.8.37.81.81,0,0,0,.79-.36,2,2,0,0,0,.19-1A1.93,1.93,0,0,0,69,9.87a.78.78,0,0,0-.82-.41.81.81,0,0,0-.84.45A2.21,2.21,0,0,0,67.18,10.81Z"/><path class="a" d="M70.76,9.21v.25a2.62,2.62,0,0,1,1.07-.35.93.93,0,0,1,.67.19.57.57,0,0,1,.15.22,2.65,2.65,0,0,1,1.14-.41.82.82,0,0,1,.75.28,1.48,1.48,0,0,1,.2.94v2.05h-.36V10.33a1.28,1.28,0,0,0-.12-.67.48.48,0,0,0-.47-.2,2.58,2.58,0,0,0-1,.39v2.53h-.36V10.23a1.14,1.14,0,0,0-.1-.59.5.5,0,0,0-.46-.18,2.56,2.56,0,0,0-1.07.38v2.54h-.37V9.21Z"/><path class="a" d="M76.1,7.86V9.52l.47-.24a1.7,1.7,0,0,1,.68-.17.89.89,0,0,1,.89.52,2.51,2.51,0,0,1,.22,1.15A2.14,2.14,0,0,1,78.1,12a1.14,1.14,0,0,1-1.08.53,2.94,2.94,0,0,1-.65-.07l-.64-.16V7.86Zm.39,4.21a2.15,2.15,0,0,0,.53.06.8.8,0,0,0,.76-.38,1.79,1.79,0,0,0,.21-1,2.15,2.15,0,0,0-.16-.94.59.59,0,0,0-.58-.38,1.25,1.25,0,0,0-.56.14c-.23.1-.42.2-.59.29V12Z"/><path class="a" d="M79.23,8.65V7.86h.39v.79Zm0,3.73V9.21h.36v3.17Z"/><path class="a" d="M81,9.21v.24a3.1,3.1,0,0,1,1.15-.34.87.87,0,0,1,.77.29,1.45,1.45,0,0,1,.21.92v2.06h-.37V10.32a1.16,1.16,0,0,0-.13-.67.53.53,0,0,0-.48-.19A3.21,3.21,0,0,0,81,9.82v2.56H80.6V9.21Z"/><path class="a" d="M84.22,9.61a1.13,1.13,0,0,1,1.08-.5,3.89,3.89,0,0,1,1.26.32v3h-.37v-.54a4,4,0,0,1-.37.31,1.27,1.27,0,0,1-.78.33.89.89,0,0,1-.88-.5,3,3,0,0,1-.19-1.2A2.3,2.3,0,0,1,84.22,9.61Zm.25,2.15a.56.56,0,0,0,.57.37,1,1,0,0,0,.61-.27l.54-.45V9.67a2.82,2.82,0,0,0-.89-.21.77.77,0,0,0-.78.38,2,2,0,0,0-.18.94A2.86,2.86,0,0,0,84.47,11.76Z"/><path class="a" d="M87.66,9.61a1,1,0,0,1,1-.5,3.75,3.75,0,0,1,1,.2V7.86h.37v4.52h-.37V12c-.08.06-.25.18-.43.29a1.47,1.47,0,0,1-.74.23.84.84,0,0,1-.88-.5,2.79,2.79,0,0,1-.21-1.19A2.44,2.44,0,0,1,87.66,9.61Zm.15,1.18a2.59,2.59,0,0,0,.13,1,.54.54,0,0,0,.58.38,1.23,1.23,0,0,0,.61-.2,4.86,4.86,0,0,0,.56-.39V9.68a3.48,3.48,0,0,0-1-.22.7.7,0,0,0-.72.37A2.31,2.31,0,0,0,87.81,10.79Z"/><path class="a" d="M91.19,9.61a1.14,1.14,0,0,1,1.09-.5,3.9,3.9,0,0,1,1.25.32v3h-.37v-.54a3,3,0,0,1-.37.31,1.24,1.24,0,0,1-.78.33.86.86,0,0,1-.87-.5,2.79,2.79,0,0,1-.2-1.2A2.3,2.3,0,0,1,91.19,9.61Zm.25,2.15a.57.57,0,0,0,.57.37,1,1,0,0,0,.61-.27l.54-.45V9.67a2.76,2.76,0,0,0-.88-.21.79.79,0,0,0-.79.38,2,2,0,0,0-.18.94A2.86,2.86,0,0,0,91.44,11.76Z"/><path class="a" d="M96.32,8.3a1.61,1.61,0,0,1,.92-.57V8.1a1.14,1.14,0,0,0-.61.43,1.53,1.53,0,0,0-.16.85V12a1.51,1.51,0,0,0,.16.85,1.16,1.16,0,0,0,.61.44v.36a1.61,1.61,0,0,1-.92-.57,1.61,1.61,0,0,1-.22-1V9.3A1.63,1.63,0,0,1,96.32,8.3Z"/><path class="a" d="M98.31,7.86v2.73l1.45-1.38h.52l-1.52,1.45,1.66,1.72h-.51l-1.6-1.65v1.65h-.37V7.86Z"/><path class="a" d="M101.29,9.21v.25a2.58,2.58,0,0,1,1.07-.35.93.93,0,0,1,.67.19,1,1,0,0,1,.15.22,2.65,2.65,0,0,1,1.14-.41.84.84,0,0,1,.75.28,1.48,1.48,0,0,1,.2.94v2.05h-.37V10.33a1.29,1.29,0,0,0-.11-.67.48.48,0,0,0-.47-.2,2.52,2.52,0,0,0-1,.39v2.53h-.37V10.23a1.15,1.15,0,0,0-.09-.59.5.5,0,0,0-.46-.18,2.56,2.56,0,0,0-1.07.38v2.54h-.37V9.21Z"/><path class="a" d="M106,8.1V7.73a1.61,1.61,0,0,1,.92.57,1.63,1.63,0,0,1,.22,1v2.77a1.61,1.61,0,0,1-.22,1,1.61,1.61,0,0,1-.92.57v-.36a1.17,1.17,0,0,0,.6-.44,1.51,1.51,0,0,0,.17-.85V9.38a1.53,1.53,0,0,0-.17-.85A1.15,1.15,0,0,0,106,8.1Z"/><path class="a" d="M109.46,11.36V11l2.11-3.15H112L109.93,11h1.95V9.89h.37v2.49h-.37v-1Z"/><path class="a" d="M113.92,12.38V8.24l-1.09.35V8.21l1.47-.47v4.64Z"/><path class="a" d="M115.24,11.36V11l2.11-3.15h.46L115.71,11h2V9.89H118v2.49h-.37v-1Z"/><path class="a" d="M120.54,11v-.37h1.62V11Z"/><path class="a" d="M124.39,11.36V11l2.11-3.15H127L124.86,11h2V9.89h.37v2.49h-.37v-1Z"/><path class="a" d="M128,11.36V11l2.11-3.15h.46L128.5,11h1.95V9.89h.37v2.49h-.37v-1Z"/><path class="a" d="M131.92,10.12a3.62,3.62,0,0,1,.3-1.83,1.21,1.21,0,0,1,1.12-.54,1.19,1.19,0,0,1,1.11.54,3.52,3.52,0,0,1,.32,1.79,3.94,3.94,0,0,1-.29,1.84,1.2,1.2,0,0,1-1.14.56,1.23,1.23,0,0,1-1.09-.45A3.69,3.69,0,0,1,131.92,10.12Zm.39,0a3.47,3.47,0,0,0,.25,1.68,1.06,1.06,0,0,0,1.61-.11,3.89,3.89,0,0,0,.22-1.6,3.37,3.37,0,0,0-.26-1.61.9.9,0,0,0-.8-.37.91.91,0,0,0-.76.33A3.18,3.18,0,0,0,132.31,10.12Z"/><path class="a" d="M135.82,12.38v-.82h.5v.82Z"/></svg>