<svg xmlns="http://www.w3.org/2000/svg" viewBox="0 0 416.7 10.72"><defs><style>.a{fill:#fff;}</style></defs><path class="a" d="M.5,4.45A6.13,6.13,0,0,1,1,1.6,2.34,2.34,0,0,1,3.39.47,6.5,6.5,0,0,1,4.62.61c.38.07.82.19,1,.25v.62c-.4-.11-.79-.21-1.2-.29a5.21,5.21,0,0,0-1.06-.12A1.78,1.78,0,0,0,1.51,2a6.19,6.19,0,0,0-.37,2.41,6.35,6.35,0,0,0,.3,2.2,1.8,1.8,0,0,0,1.91,1.1,10.91,10.91,0,0,0,2.3-.33V8a11.26,11.26,0,0,1-2.3.31A2.32,2.32,0,0,1,.87,6.94,6.88,6.88,0,0,1,.5,4.45Z"/><path class="a" d="M6.59,5.58a4.61,4.61,0,0,1,.26-1.7,1.9,1.9,0,0,1,2-1.15,2,2,0,0,1,1.78.74,3.58,3.58,0,0,1,.48,2.07,4.19,4.19,0,0,1-.35,1.85,2,2,0,0,1-1.91,1A1.93,1.93,0,0,1,7,7.54,3.93,3.93,0,0,1,6.59,5.58Zm.62,0a3.55,3.55,0,0,0,.3,1.59,1.33,1.33,0,0,0,1.34.62,1.39,1.39,0,0,0,1.32-.6,3.53,3.53,0,0,0,.32-1.66A3.21,3.21,0,0,0,10.22,4a1.34,1.34,0,0,0-1.37-.68,1.35,1.35,0,0,0-1.4.75A3.75,3.75,0,0,0,7.21,5.56Z"/><path class="a" d="M13.18,2.9v.39a5.21,5.21,0,0,1,1.92-.56,1.48,1.48,0,0,1,1.29.48,2.37,2.37,0,0,1,.34,1.53V8.18h-.61V4.74a2,2,0,0,0-.21-1.11.9.9,0,0,0-.81-.32,5.37,5.37,0,0,0-1.92.6V8.18h-.61V2.9Z"/><path class="a" d="M18.13,4.18a1.29,1.29,0,0,1,.49-1.1A2.17,2.17,0,0,1,20,2.73,8.25,8.25,0,0,1,21.85,3v.59A9.55,9.55,0,0,0,20,3.31a1.61,1.61,0,0,0-1,.2.77.77,0,0,0-.3.67.67.67,0,0,0,.22.58,2.84,2.84,0,0,0,.75.31l1,.31a2.16,2.16,0,0,1,1,.49,1.37,1.37,0,0,1,.36,1A1.37,1.37,0,0,1,21.49,8,2.5,2.5,0,0,1,20,8.35a8.1,8.1,0,0,1-1.79-.25V7.51A9.32,9.32,0,0,0,20,7.77,2,2,0,0,0,21,7.57a.8.8,0,0,0,.4-.72.76.76,0,0,0-.19-.55,2,2,0,0,0-.81-.37l-.92-.29a2.67,2.67,0,0,1-1-.46A1.3,1.3,0,0,1,18.13,4.18Z"/><path class="a" d="M24.06,2.9V6.18a2.27,2.27,0,0,0,.21,1.25c.18.25.44.34.94.34a5.31,5.31,0,0,0,1.69-.28V2.9h.61v5a8.22,8.22,0,0,1-2.3.42,1.66,1.66,0,0,1-1.43-.51,2.75,2.75,0,0,1-.33-1.66V2.9Z"/><path class="a" d="M29.78,2.9v.41a4.29,4.29,0,0,1,1.79-.58,1.5,1.5,0,0,1,1.11.32,1,1,0,0,1,.26.37,4.27,4.27,0,0,1,1.9-.69,1.4,1.4,0,0,1,1.25.47,2.47,2.47,0,0,1,.33,1.56V8.18h-.61V4.77a2.15,2.15,0,0,0-.19-1.13.82.82,0,0,0-.78-.33A4.14,4.14,0,0,0,33.1,4V8.18h-.61V4.59a1.78,1.78,0,0,0-.16-1,.81.81,0,0,0-.76-.31,4.47,4.47,0,0,0-1.79.63V8.18h-.61V2.9Z"/><path class="a" d="M37.87,5.58a4.61,4.61,0,0,1,.26-1.7,1.9,1.9,0,0,1,2-1.15,2,2,0,0,1,1.78.74,3.58,3.58,0,0,1,.48,2.07A4.19,4.19,0,0,1,42,7.39a2,2,0,0,1-1.91,1,1.93,1.93,0,0,1-1.83-.81A3.93,3.93,0,0,1,37.87,5.58Zm.62,0a3.55,3.55,0,0,0,.3,1.59,1.33,1.33,0,0,0,1.34.62,1.39,1.39,0,0,0,1.32-.6,3.53,3.53,0,0,0,.32-1.66A3.21,3.21,0,0,0,41.5,4a1.7,1.7,0,0,0-2.77.07A3.75,3.75,0,0,0,38.49,5.56Z"/><path class="a" d="M46.2,5.56a3.88,3.88,0,0,1,.35-1.88,1.94,1.94,0,0,1,1.91-1,1.92,1.92,0,0,1,1.85.9,2.36,2.36,0,0,1,.25,1.17,5.91,5.91,0,0,1-.1,1H46.82a2.9,2.9,0,0,0,.24,1.27c.27.49.7.68,1.53.68a9.61,9.61,0,0,0,1.7-.21v.59a10.44,10.44,0,0,1-1.7.2c-1.17,0-1.68-.31-2-.88A3.61,3.61,0,0,1,46.2,5.56Zm.62-.28H49.9a3.8,3.8,0,0,0,0-.52,1.77,1.77,0,0,0-.17-.83A1.72,1.72,0,0,0,47.06,4,3.23,3.23,0,0,0,46.82,5.28Z"/><path class="a" d="M52,8.18V.64h.61V8.18Z"/><path class="a" d="M54.41,3.68a1.94,1.94,0,0,1,1.91-1,1.92,1.92,0,0,1,1.85.9,2.36,2.36,0,0,1,.25,1.17,5.91,5.91,0,0,1-.1,1H54.68a2.9,2.9,0,0,0,.24,1.27c.27.49.7.68,1.53.68a9.61,9.61,0,0,0,1.7-.21v.59a10.44,10.44,0,0,1-1.7.2c-1.17,0-1.68-.31-2-.88a3.61,3.61,0,0,1-.36-1.91A3.88,3.88,0,0,1,54.41,3.68Zm3.35,1.6a3.8,3.8,0,0,0,0-.52,1.77,1.77,0,0,0-.17-.83A1.72,1.72,0,0,0,54.92,4a3.23,3.23,0,0,0-.24,1.26ZM56.81.64h.8L56.4,2h-.78Z"/><path class="a" d="M59.87,3.86c.29-.74.78-1.13,2-1.13A6.34,6.34,0,0,1,63.42,3v.59a7,7,0,0,0-1.57-.32c-.75,0-1.13.16-1.38.73a4.41,4.41,0,0,0-.2,1.52,3.7,3.7,0,0,0,.3,1.61,1.26,1.26,0,0,0,1.28.6,7.46,7.46,0,0,0,1.57-.26V8.1a7.8,7.8,0,0,1-1.57.25,1.77,1.77,0,0,1-1.8-.84,4.12,4.12,0,0,1-.4-1.93A5.17,5.17,0,0,1,59.87,3.86Z"/><path class="a" d="M65.28,1.57V3h1.6v.58h-1.6V6.18a7,7,0,0,0,0,.88.49.49,0,0,0,.36.47,4.78,4.78,0,0,0,1,.14v.58a6.16,6.16,0,0,1-1.29-.18.8.8,0,0,1-.59-.53,4.46,4.46,0,0,1-.1-1.36V1.57Z"/><path class="a" d="M67.85,2.9h.61v.66a4.05,4.05,0,0,1,1.88-.78V3.4a4.47,4.47,0,0,0-1,.3,5.28,5.28,0,0,0-.9.52v4h-.61Z"/><path class="a" d="M71.27,2V.64h.65V2Zm0,6.22V2.9h.61V8.18Z"/><path class="a" d="M73.58,3.86c.29-.74.78-1.13,2-1.13A6.34,6.34,0,0,1,77.13,3v.59a7,7,0,0,0-1.57-.32c-.75,0-1.13.16-1.38.73A4.41,4.41,0,0,0,74,5.56a3.7,3.7,0,0,0,.3,1.61,1.26,1.26,0,0,0,1.28.6,7.46,7.46,0,0,0,1.57-.26V8.1a7.8,7.8,0,0,1-1.57.25,1.77,1.77,0,0,1-1.8-.84,4.12,4.12,0,0,1-.4-1.93A5.17,5.17,0,0,1,73.58,3.86Z"/><path class="a" d="M78.19,5.58a4.61,4.61,0,0,1,.26-1.7,1.9,1.9,0,0,1,2-1.15,2,2,0,0,1,1.78.74,3.58,3.58,0,0,1,.48,2.07,4.19,4.19,0,0,1-.35,1.85,2,2,0,0,1-1.91,1,1.93,1.93,0,0,1-1.83-.81A3.93,3.93,0,0,1,78.19,5.58Zm.62,0a3.55,3.55,0,0,0,.3,1.59,1.33,1.33,0,0,0,1.34.62,1.39,1.39,0,0,0,1.32-.6,3.53,3.53,0,0,0,.32-1.66A3.21,3.21,0,0,0,81.82,4a1.7,1.7,0,0,0-2.77.07A3.75,3.75,0,0,0,78.81,5.56Z"/><path class="a" d="M86.74,3.86c.29-.74.78-1.13,2-1.13A6.34,6.34,0,0,1,90.29,3v.59a7,7,0,0,0-1.57-.32c-.75,0-1.13.16-1.38.73a4.41,4.41,0,0,0-.2,1.52,3.7,3.7,0,0,0,.3,1.61,1.26,1.26,0,0,0,1.28.6,7.46,7.46,0,0,0,1.57-.26V8.1a7.8,7.8,0,0,1-1.57.25,1.77,1.77,0,0,1-1.8-.84,4.12,4.12,0,0,1-.4-1.93A5.17,5.17,0,0,1,86.74,3.86Z"/><path class="a" d="M91.35,5.58a4.61,4.61,0,0,1,.26-1.7,1.9,1.9,0,0,1,2-1.15,2,2,0,0,1,1.78.74,3.58,3.58,0,0,1,.48,2.07,4.19,4.19,0,0,1-.35,1.85,2,2,0,0,1-1.91,1,1.93,1.93,0,0,1-1.83-.81A3.93,3.93,0,0,1,91.35,5.58Zm.62,0a3.55,3.55,0,0,0,.3,1.59,1.33,1.33,0,0,0,1.34.62,1.39,1.39,0,0,0,1.32-.6,3.53,3.53,0,0,0,.32-1.66A3.21,3.21,0,0,0,95,4a1.7,1.7,0,0,0-2.77.07A3.75,3.75,0,0,0,92,5.56Z"/><path class="a" d="M97.94,2.9v.41a4.29,4.29,0,0,1,1.79-.58,1.5,1.5,0,0,1,1.11.32,1,1,0,0,1,.26.37A4.27,4.27,0,0,1,103,2.73a1.4,1.4,0,0,1,1.25.47,2.47,2.47,0,0,1,.33,1.56V8.18H104V4.77a2.15,2.15,0,0,0-.19-1.13.82.82,0,0,0-.78-.33,4.1,4.1,0,0,0-1.73.66V8.18h-.61V4.59a1.78,1.78,0,0,0-.16-1,.81.81,0,0,0-.76-.31,4.47,4.47,0,0,0-1.79.63V8.18h-.61V2.9Z"/><path class="a" d="M106.84.64V3.41c.11-.06.51-.27.78-.39a2.81,2.81,0,0,1,1.14-.29,1.51,1.51,0,0,1,1.49.86,4.26,4.26,0,0,1,.36,1.93,3.51,3.51,0,0,1-.44,1.94,1.87,1.87,0,0,1-1.79.89,5.12,5.12,0,0,1-1.09-.12c-.34-.07-.72-.17-1.06-.26V.64Zm.65,7a4,4,0,0,0,.89.1,1.34,1.34,0,0,0,1.26-.63A3,3,0,0,0,110,5.52a3.81,3.81,0,0,0-.26-1.58,1,1,0,0,0-1-.63,2.11,2.11,0,0,0-.93.24c-.38.17-.7.33-1,.48V7.51Z"/><path class="a" d="M112.05,2V.64h.65V2Zm0,6.22V2.9h.61V8.18Z"/><path class="a" d="M115,2.9v.39a5.21,5.21,0,0,1,1.92-.56,1.48,1.48,0,0,1,1.29.48,2.37,2.37,0,0,1,.34,1.53V8.18h-.61V4.74a2,2,0,0,0-.21-1.11.9.9,0,0,0-.81-.32,5.37,5.37,0,0,0-1.92.6V8.18h-.61V2.9Z"/><path class="a" d="M120.37,3.57a1.9,1.9,0,0,1,1.81-.84,6.33,6.33,0,0,1,2.09.54V8.18h-.61V7.29c-.19.17-.38.33-.62.51a2.11,2.11,0,0,1-1.3.55,1.46,1.46,0,0,1-1.46-.83,4.92,4.92,0,0,1-.33-2A3.81,3.81,0,0,1,120.37,3.57Zm.42,3.58a.93.93,0,0,0,.95.62,1.75,1.75,0,0,0,1-.46c.31-.24.65-.53.9-.75V3.67a4.39,4.39,0,0,0-1.48-.36,1.31,1.31,0,0,0-1.31.63,3.45,3.45,0,0,0-.3,1.58A4.74,4.74,0,0,0,120.79,7.15Z"/><path class="a" d="M126.1,3.56a1.75,1.75,0,0,1,1.7-.83,6.3,6.3,0,0,1,1.7.34V.64h.61V8.18h-.61v-.7c-.14.1-.43.3-.72.48a2.36,2.36,0,0,1-1.24.39,1.41,1.41,0,0,1-1.47-.84,4.76,4.76,0,0,1-.34-2A4.23,4.23,0,0,1,126.1,3.56Zm.25,2a4.32,4.32,0,0,0,.23,1.61.9.9,0,0,0,1,.63,2,2,0,0,0,1-.34,9.41,9.41,0,0,0,.94-.65V3.68a5.94,5.94,0,0,0-1.7-.37,1.16,1.16,0,0,0-1.19.62A3.81,3.81,0,0,0,126.35,5.53Z"/><path class="a" d="M131.57,5.58a4.61,4.61,0,0,1,.26-1.7,1.9,1.9,0,0,1,2-1.15,2,2,0,0,1,1.78.74,3.65,3.65,0,0,1,.48,2.07,4,4,0,0,1-.36,1.85,2.41,2.41,0,0,1-3.73.15A3.93,3.93,0,0,1,131.57,5.58Zm.62,0a3.55,3.55,0,0,0,.3,1.59,1.33,1.33,0,0,0,1.34.62,1.39,1.39,0,0,0,1.32-.6,3.53,3.53,0,0,0,.32-1.66A3.21,3.21,0,0,0,135.2,4a1.7,1.7,0,0,0-2.77.07A3.75,3.75,0,0,0,132.19,5.56Z"/><path class="a" d="M140.54,1.38a2.67,2.67,0,0,1,1.53-.95V1a1.94,1.94,0,0,0-1,.73,2.5,2.5,0,0,0-.27,1.41V7.54A2.5,2.5,0,0,0,141.06,9a1.94,1.94,0,0,0,1,.73v.6a2.65,2.65,0,0,1-1.53-.94,2.72,2.72,0,0,1-.37-1.67V3.05A2.72,2.72,0,0,1,140.54,1.38Z"/><path class="a" d="M143.43,8.18V.64h.62V4.25L147.66.64h.89l-3.72,3.72,4,3.82h-.93l-3.89-3.67V8.18Z"/><path class="a" d="M149.73.64l1.46,6.94,1.64-5.8h.81l1.66,5.8L156.75.64h.63l-1.57,7.54h-1l-1.62-5.66-1.59,5.66h-1L149.1.64Z"/><path class="a" d="M159.15.64V3.25A5.05,5.05,0,0,1,161,2.73a1.52,1.52,0,0,1,1.31.48,2.28,2.28,0,0,1,.34,1.53V8.18h-.61V4.75a1.94,1.94,0,0,0-.21-1.13.94.94,0,0,0-.83-.31,5.06,5.06,0,0,0-1.86.56V8.18h-.61V.64Z"/><path class="a" d="M163.61,8.18,166.42.64h.67l-2.81,7.54Z"/><path class="a" d="M169.36,8.18V1.28l-1.83.59V1.23L170,.44V8.18Z"/><path class="a" d="M172,4.41a6.1,6.1,0,0,1,.49-3,2,2,0,0,1,1.87-.89,2,2,0,0,1,1.85.89,6,6,0,0,1,.53,3,6.5,6.5,0,0,1-.49,3.06,2,2,0,0,1-1.89.94,2,2,0,0,1-1.81-.76A6.06,6.06,0,0,1,172,4.41Zm.64,0A5.83,5.83,0,0,0,173,7.22a1.42,1.42,0,0,0,1.31.53A1.39,1.39,0,0,0,175.72,7a6.5,6.5,0,0,0,.36-2.66,5.73,5.73,0,0,0-.43-2.69,1.46,1.46,0,0,0-1.32-.61,1.5,1.5,0,0,0-1.27.54A5.25,5.25,0,0,0,172.62,4.41Z"/><path class="a" d="M178.53,4.41a6.1,6.1,0,0,1,.49-3,2,2,0,0,1,1.87-.89,2,2,0,0,1,1.85.89,6,6,0,0,1,.53,3,6.5,6.5,0,0,1-.49,3.06,2,2,0,0,1-1.89.94,2,2,0,0,1-1.81-.76A6.06,6.06,0,0,1,178.53,4.41Zm.64,0a5.83,5.83,0,0,0,.42,2.81,1.42,1.42,0,0,0,1.31.53A1.38,1.38,0,0,0,182.27,7a6.5,6.5,0,0,0,.36-2.66,5.73,5.73,0,0,0-.43-2.69,1.45,1.45,0,0,0-1.32-.61,1.5,1.5,0,0,0-1.27.54A5.25,5.25,0,0,0,179.17,4.41Z"/><path class="a" d="M184.52,1V.43a2.67,2.67,0,0,1,1.53,1,2.72,2.72,0,0,1,.37,1.67V7.67a2.72,2.72,0,0,1-.37,1.67,2.65,2.65,0,0,1-1.53.94v-.6a1.94,1.94,0,0,0,1-.73,2.5,2.5,0,0,0,.27-1.41V3.18a2.5,2.5,0,0,0-.27-1.41A1.94,1.94,0,0,0,184.52,1Z"/><path class="a" d="M191.72,8.18V1.28l-1.83.59V1.23l2.45-.79V8.18Z"/><path class="a" d="M194.31,5.5c0-1,0-2.73,1.1-3.72A6.08,6.08,0,0,1,198.49.51v.61a5.39,5.39,0,0,0-2.57,1,2.69,2.69,0,0,0-.84,1.63c.24,0,.81,0,1.32,0a2.61,2.61,0,0,1,2,.63A2.24,2.24,0,0,1,199,5.93a2.66,2.66,0,0,1-.44,1.61,2.11,2.11,0,0,1-1.89.81,2,2,0,0,1-1.89-.85A3.71,3.71,0,0,1,194.31,5.5Zm.64,0a3.23,3.23,0,0,0,.3,1.63,1.49,1.49,0,0,0,1.38.62A1.51,1.51,0,0,0,198,7.21a2.09,2.09,0,0,0,.34-1.28A1.7,1.7,0,0,0,198,4.8a2.05,2.05,0,0,0-1.61-.45c-.51,0-1.08,0-1.36,0A10,10,0,0,0,195,5.5Z"/><path class="a" d="M200.33,9.91a8.22,8.22,0,0,0,.26-2.23V6.82h.77V7.94a5.05,5.05,0,0,1-.49,2Z"/><path class="a" d="M203.09,6.23a2,2,0,0,1,.51-1.38,4.68,4.68,0,0,1,.67-.61,1.53,1.53,0,0,1-.64-.52,2.1,2.1,0,0,1-.3-1.27A1.82,1.82,0,0,1,204,.94a2.63,2.63,0,0,1,1.68-.47,2.31,2.31,0,0,1,1.85.71,1.87,1.87,0,0,1,.42,1.27,2,2,0,0,1-.42,1.29,6.62,6.62,0,0,1-.57.63,2.41,2.41,0,0,1,.74.5,1.92,1.92,0,0,1,.49,1.36,2,2,0,0,1-.6,1.51,2.65,2.65,0,0,1-1.94.61,3,3,0,0,1-1.9-.49A1.92,1.92,0,0,1,203.09,6.23Zm1,1.15a2.3,2.3,0,0,0,1.49.37A2.21,2.21,0,0,0,207,7.41a1.35,1.35,0,0,0,.54-1.18,1.22,1.22,0,0,0-.69-1.2,8.53,8.53,0,0,0-2-.57,5.48,5.48,0,0,0-.76.71,1.66,1.66,0,0,0-.39,1.06A1.35,1.35,0,0,0,204.14,7.38ZM204,2.45c0,.59.1,1,.46,1.18a9.24,9.24,0,0,0,1.91.54,7.68,7.68,0,0,0,.62-.71,1.59,1.59,0,0,0,.33-1,1.29,1.29,0,0,0-.33-1,1.79,1.79,0,0,0-1.31-.43,1.88,1.88,0,0,0-1.32.4A1.25,1.25,0,0,0,204,2.45Z"/><path class="a" d="M212.31,5.85V5.23H215v.62Z"/><path class="a" d="M220.11,8.18V1.28l-1.83.59V1.23l2.44-.79V8.18Z"/><path class="a" d="M222.71,6.23a2,2,0,0,1,.51-1.38,4.63,4.63,0,0,1,.66-.61,1.56,1.56,0,0,1-.63-.52,2.1,2.1,0,0,1-.3-1.27A1.82,1.82,0,0,1,223.6.94a2.63,2.63,0,0,1,1.68-.47,2.31,2.31,0,0,1,1.85.71,1.87,1.87,0,0,1,.42,1.27,2,2,0,0,1-.42,1.29,6.62,6.62,0,0,1-.57.63,2.41,2.41,0,0,1,.74.5,1.92,1.92,0,0,1,.49,1.36,2,2,0,0,1-.6,1.51,2.65,2.65,0,0,1-1.94.61,3,3,0,0,1-1.9-.49A1.92,1.92,0,0,1,222.71,6.23Zm1,1.15a2.34,2.34,0,0,0,1.5.37,2.21,2.21,0,0,0,1.36-.34,1.35,1.35,0,0,0,.54-1.18,1.22,1.22,0,0,0-.69-1.2,8.53,8.53,0,0,0-2-.57,5.48,5.48,0,0,0-.76.71,1.66,1.66,0,0,0-.39,1.06A1.37,1.37,0,0,0,223.75,7.38Zm-.16-4.93c0,.59.1,1,.46,1.18a9.24,9.24,0,0,0,1.91.54,7.68,7.68,0,0,0,.62-.71,1.59,1.59,0,0,0,.33-1,1.29,1.29,0,0,0-.33-1,1.79,1.79,0,0,0-1.31-.43,1.86,1.86,0,0,0-1.32.4A1.21,1.21,0,0,0,223.59,2.45Z"/><path class="a" d="M229.33,9.91a8.22,8.22,0,0,0,.26-2.23V6.82h.77V7.94a5.05,5.05,0,0,1-.49,2Z"/><path class="a" d="M232,7.54c1-1.14,2.58-2.95,3-3.47a2.78,2.78,0,0,0,.86-1.76,1.16,1.16,0,0,0-.3-.89,1.66,1.66,0,0,0-1.22-.35,9.37,9.37,0,0,0-2,.37V.83a8.94,8.94,0,0,1,2-.36,2.11,2.11,0,0,1,1.76.6,1.78,1.78,0,0,1,.4,1.24,3.33,3.33,0,0,1-1,2.13c-1,1.25-2.25,2.61-2.74,3.14h4v.6H232Z"/><path class="a" d="M238.1,8.18V6.82h.82V8.18Z"/><path class="a" d="M245.34.64h.82L249,8.18h-.67l-.76-2h-3.67l-.76,2h-.65Zm-1.21,4.94h3.22l-1.61-4.3Z"/><path class="a" d="M250.56,2.9V6.18a2.37,2.37,0,0,0,.21,1.25c.19.25.44.34.94.34a5.31,5.31,0,0,0,1.69-.28V2.9H254v5a8.22,8.22,0,0,1-2.3.42,1.64,1.64,0,0,1-1.42-.51A2.68,2.68,0,0,1,250,6.18V2.9Z"/><path class="a" d="M256.27,1.57V3h1.6v.58h-1.6V6.18a7,7,0,0,0,0,.88.5.5,0,0,0,.37.47,4.57,4.57,0,0,0,1,.14v.58a6.16,6.16,0,0,1-1.29-.18.83.83,0,0,1-.59-.53,4.94,4.94,0,0,1-.09-1.36V1.57Z"/><path class="a" d="M258.65,5.58a4.41,4.41,0,0,1,.26-1.7,1.88,1.88,0,0,1,2-1.15,2,2,0,0,1,1.78.74,3.58,3.58,0,0,1,.48,2.07,4.19,4.19,0,0,1-.35,1.85,2,2,0,0,1-1.91,1,1.9,1.9,0,0,1-1.82-.81A3.93,3.93,0,0,1,258.65,5.58Zm.61,0a3.55,3.55,0,0,0,.3,1.59,1.33,1.33,0,0,0,1.34.62,1.39,1.39,0,0,0,1.32-.6,3.53,3.53,0,0,0,.32-1.66A3.21,3.21,0,0,0,262.27,4a1.7,1.7,0,0,0-2.77.07A3.93,3.93,0,0,0,259.26,5.56Z"/><path class="a" d="M265.23,2.9v.39a5.21,5.21,0,0,1,1.92-.56,1.48,1.48,0,0,1,1.29.48,2.37,2.37,0,0,1,.34,1.53V8.18h-.61V4.74A2,2,0,0,0,268,3.63a.9.9,0,0,0-.81-.32,5.37,5.37,0,0,0-1.92.6V8.18h-.6V2.9Z"/><path class="a" d="M270.24,5.58a4.41,4.41,0,0,1,.26-1.7,1.88,1.88,0,0,1,2-1.15,2,2,0,0,1,1.78.74,3.58,3.58,0,0,1,.48,2.07,4.19,4.19,0,0,1-.35,1.85,2,2,0,0,1-1.91,1,1.9,1.9,0,0,1-1.82-.81A3.82,3.82,0,0,1,270.24,5.58Zm.61,0a3.55,3.55,0,0,0,.3,1.59,1.33,1.33,0,0,0,1.34.62,1.39,1.39,0,0,0,1.32-.6,3.53,3.53,0,0,0,.32-1.66A3.21,3.21,0,0,0,273.86,4a1.7,1.7,0,0,0-2.77.07A3.93,3.93,0,0,0,270.85,5.56Z"/><path class="a" d="M276.82,2.9v.41a4.29,4.29,0,0,1,1.79-.58,1.5,1.5,0,0,1,1.11.32,1,1,0,0,1,.26.37,4.27,4.27,0,0,1,1.9-.69,1.4,1.4,0,0,1,1.25.47,2.47,2.47,0,0,1,.33,1.56V8.18h-.61V4.77a2.15,2.15,0,0,0-.19-1.13.82.82,0,0,0-.78-.33,4.14,4.14,0,0,0-1.74.66V8.18h-.61V4.59a1.78,1.78,0,0,0-.16-1,.81.81,0,0,0-.76-.31,4.47,4.47,0,0,0-1.79.63V8.18h-.61V2.9Z"/><path class="a" d="M284.88,2,286.07.64h.8L285.66,2Zm.23,6.17V2.9h.61V8.18Z"/><path class="a" d="M287.6,3.57a1.9,1.9,0,0,1,1.81-.84,6.33,6.33,0,0,1,2.09.54V8.18h-.61V7.29c-.19.17-.38.33-.62.51a2.11,2.11,0,0,1-1.3.55,1.46,1.46,0,0,1-1.46-.83,5.1,5.1,0,0,1-.33-2A3.81,3.81,0,0,1,287.6,3.57ZM288,7.15a.93.93,0,0,0,1,.62,1.75,1.75,0,0,0,1-.46c.31-.24.65-.53.9-.75V3.67a4.39,4.39,0,0,0-1.48-.36,1.31,1.31,0,0,0-1.31.63,3.45,3.45,0,0,0-.3,1.58A4.74,4.74,0,0,0,288,7.15Z"/><path class="a" d="M295.73,3.86c.29-.74.78-1.13,2-1.13a6.34,6.34,0,0,1,1.57.31v.59a7,7,0,0,0-1.57-.32c-.75,0-1.13.16-1.38.73a4.41,4.41,0,0,0-.2,1.52,3.7,3.7,0,0,0,.3,1.61,1.26,1.26,0,0,0,1.28.6,7.46,7.46,0,0,0,1.57-.26V8.1a7.8,7.8,0,0,1-1.57.25,1.77,1.77,0,0,1-1.8-.84,4.12,4.12,0,0,1-.4-1.93A5.17,5.17,0,0,1,295.73,3.86Z"/><path class="a" d="M300.34,5.58a4.61,4.61,0,0,1,.26-1.7,1.9,1.9,0,0,1,2-1.15,2,2,0,0,1,1.78.74,3.58,3.58,0,0,1,.48,2.07,4.19,4.19,0,0,1-.35,1.85,2,2,0,0,1-1.91,1,1.93,1.93,0,0,1-1.83-.81A3.93,3.93,0,0,1,300.34,5.58Zm.62,0a3.55,3.55,0,0,0,.3,1.59,1.33,1.33,0,0,0,1.34.62,1.39,1.39,0,0,0,1.32-.6,3.53,3.53,0,0,0,.32-1.66A3.21,3.21,0,0,0,304,4a1.7,1.7,0,0,0-2.77.07A3.75,3.75,0,0,0,301,5.56Z"/><path class="a" d="M306.93,2.9v.41a4.29,4.29,0,0,1,1.79-.58,1.5,1.5,0,0,1,1.11.32,1,1,0,0,1,.26.37,4.27,4.27,0,0,1,1.9-.69,1.4,1.4,0,0,1,1.25.47,2.47,2.47,0,0,1,.33,1.56V8.18H313V4.77a2.15,2.15,0,0,0-.19-1.13.82.82,0,0,0-.78-.33,4.14,4.14,0,0,0-1.74.66V8.18h-.61V4.59a1.78,1.78,0,0,0-.16-1,.81.81,0,0,0-.76-.31,4.47,4.47,0,0,0-1.79.63V8.18h-.61V2.9Z"/><path class="a" d="M315.83.64V3.41c.11-.06.51-.27.78-.39a2.81,2.81,0,0,1,1.14-.29,1.51,1.51,0,0,1,1.49.86,4.26,4.26,0,0,1,.36,1.93,3.51,3.51,0,0,1-.44,1.94,1.87,1.87,0,0,1-1.79.89,5.12,5.12,0,0,1-1.09-.12c-.34-.07-.72-.17-1.06-.26V.64Zm.65,7a4,4,0,0,0,.89.1,1.34,1.34,0,0,0,1.26-.63A3,3,0,0,0,319,5.52a3.81,3.81,0,0,0-.26-1.58,1,1,0,0,0-1-.63,2.11,2.11,0,0,0-.93.24c-.38.17-.7.33-1,.48V7.51Z"/><path class="a" d="M321,2V.64h.65V2Zm0,6.22V2.9h.61V8.18Z"/><path class="a" d="M323.94,2.9v.39a5.21,5.21,0,0,1,1.92-.56,1.48,1.48,0,0,1,1.29.48,2.37,2.37,0,0,1,.34,1.53V8.18h-.61V4.74a2,2,0,0,0-.21-1.11.9.9,0,0,0-.81-.32,5.37,5.37,0,0,0-1.92.6V8.18h-.61V2.9Z"/><path class="a" d="M329.36,3.57a1.9,1.9,0,0,1,1.81-.84,6.33,6.33,0,0,1,2.09.54V8.18h-.61V7.29c-.19.17-.38.33-.62.51a2.11,2.11,0,0,1-1.3.55,1.46,1.46,0,0,1-1.46-.83,4.92,4.92,0,0,1-.33-2A3.81,3.81,0,0,1,329.36,3.57Zm.42,3.58a.93.93,0,0,0,1,.62,1.75,1.75,0,0,0,1-.46c.31-.24.65-.53.9-.75V3.67a4.39,4.39,0,0,0-1.48-.36,1.31,1.31,0,0,0-1.31.63,3.45,3.45,0,0,0-.3,1.58A4.74,4.74,0,0,0,329.78,7.15Z"/><path class="a" d="M335.09,3.56a1.75,1.75,0,0,1,1.7-.83,6.3,6.3,0,0,1,1.7.34V.64h.61V8.18h-.61v-.7c-.14.1-.43.3-.72.48a2.36,2.36,0,0,1-1.24.39,1.41,1.41,0,0,1-1.47-.84,4.76,4.76,0,0,1-.34-2A4.23,4.23,0,0,1,335.09,3.56Zm.25,2a4.32,4.32,0,0,0,.23,1.61.9.9,0,0,0,1,.63,2,2,0,0,0,1-.34,9.41,9.41,0,0,0,.94-.65V3.68a5.94,5.94,0,0,0-1.7-.37,1.16,1.16,0,0,0-1.19.62A3.81,3.81,0,0,0,335.34,5.53Z"/><path class="a" d="M341,3.57a1.9,1.9,0,0,1,1.81-.84,6.33,6.33,0,0,1,2.09.54V8.18h-.61V7.29c-.19.17-.38.33-.62.51a2.11,2.11,0,0,1-1.3.55,1.46,1.46,0,0,1-1.46-.83,4.92,4.92,0,0,1-.33-2A3.81,3.81,0,0,1,341,3.57Zm.42,3.58a.93.93,0,0,0,1,.62,1.75,1.75,0,0,0,1-.46c.31-.24.65-.53.9-.75V3.67a4.39,4.39,0,0,0-1.48-.36,1.31,1.31,0,0,0-1.31.63,3.45,3.45,0,0,0-.3,1.58A4.74,4.74,0,0,0,341.4,7.15Z"/><path class="a" d="M349.53,1.38a2.67,2.67,0,0,1,1.53-.95V1a1.94,1.94,0,0,0-1,.73,2.5,2.5,0,0,0-.27,1.41V7.54A2.5,2.5,0,0,0,350.05,9a1.94,1.94,0,0,0,1,.73v.6a2.65,2.65,0,0,1-1.53-.94,2.72,2.72,0,0,1-.37-1.67V3.05A2.72,2.72,0,0,1,349.53,1.38Z"/><path class="a" d="M352.84.64V5.2l2.43-2.3h.87l-2.55,2.42,2.78,2.86h-.85l-2.68-2.75V8.18h-.61V.64Z"/><path class="a" d="M357.81,2.9v.41a4.29,4.29,0,0,1,1.79-.58,1.5,1.5,0,0,1,1.11.32,1,1,0,0,1,.26.37,4.27,4.27,0,0,1,1.9-.69,1.4,1.4,0,0,1,1.25.47,2.47,2.47,0,0,1,.33,1.56V8.18h-.61V4.77a2.15,2.15,0,0,0-.19-1.13.82.82,0,0,0-.78-.33,4.14,4.14,0,0,0-1.74.66V8.18h-.61V4.59a1.78,1.78,0,0,0-.16-1,.81.81,0,0,0-.76-.31,4.47,4.47,0,0,0-1.79.63V8.18h-.61V2.9Z"/><path class="a" d="M365.61,1V.43a2.67,2.67,0,0,1,1.53,1,2.72,2.72,0,0,1,.37,1.67V7.67a2.72,2.72,0,0,1-.37,1.67,2.65,2.65,0,0,1-1.53.94v-.6a1.94,1.94,0,0,0,1-.73,2.5,2.5,0,0,0,.27-1.41V3.18a2.5,2.5,0,0,0-.27-1.41A1.94,1.94,0,0,0,365.61,1Z"/><path class="a" d="M371.43,6.49v-.6L375,.64h.77l-3.51,5.24h3.26V4h.62V8.18h-.62V6.49Z"/><path class="a" d="M378.87,8.18V1.28L377,1.87V1.23l2.45-.79V8.18Z"/><path class="a" d="M381.06,6.49v-.6L384.58.64h.77l-3.51,5.24h3.26V4h.62V8.18h-.62V6.49Z"/><path class="a" d="M389.9,5.85V5.23h2.7v.62Z"/><path class="a" d="M396.32,6.49v-.6L399.84.64h.77L397.1,5.88h3.26V4H401V8.18h-.62V6.49Z"/><path class="a" d="M402.38,6.49v-.6L405.9.64h.77l-3.51,5.24h3.26V4H407V8.18h-.62V6.49Z"/><path class="a" d="M408.87,4.41a6.1,6.1,0,0,1,.49-3,2,2,0,0,1,1.87-.89,2,2,0,0,1,1.86.89,6,6,0,0,1,.53,3,6.5,6.5,0,0,1-.49,3.06,2,2,0,0,1-1.9.94,2,2,0,0,1-1.81-.76A6.06,6.06,0,0,1,408.87,4.41Zm.64,0a5.83,5.83,0,0,0,.42,2.81,1.42,1.42,0,0,0,1.31.53A1.4,1.4,0,0,0,412.62,7,6.5,6.5,0,0,0,413,4.37a5.73,5.73,0,0,0-.43-2.69,1.47,1.47,0,0,0-1.33-.61,1.5,1.5,0,0,0-1.27.54A5.25,5.25,0,0,0,409.51,4.41Z"/><path class="a" d="M415.37,8.18V6.82h.83V8.18Z"/></svg>