<?xml version="1.0" encoding="utf-8"?>
<!-- Generator: Adobe Illustrator 26.0.1, SVG Export Plug-In . SVG Version: 6.00 Build 0)  -->
<svg version="1.1" id="Capa_1" xmlns="http://www.w3.org/2000/svg" xmlns:xlink="http://www.w3.org/1999/xlink" x="0px" y="0px"
	 viewBox="0 0 769.6 344.7" style="enable-background:new 0 0 769.6 344.7;" xml:space="preserve">
<style type="text/css">
	.st0{fill:#FFFFFF;}
	.st1{fill:#0066B1;}
</style>
<path class="st0" d="M172.2,2.3C78.3,2.3,2.1,78.4,2.1,172.3s76.1,170.1,170.1,170.1s170.1-76.1,170.1-170.1l0,0
	C342.3,78.4,266.1,2.3,172.2,2.3z M331.2,172.3c0,87.8-71.2,159-159,159s-159-71.2-159-159s71.2-159,159-159
	C260,13.3,331.2,84.5,331.2,172.3C331.2,172.3,331.2,172.3,331.2,172.3L331.2,172.3z"/>
<path class="st0" d="M254.6,100.2c2.3,2.5,5.6,6.5,7.5,8.9l34.4-21.8c-1.7-2.2-4.5-5.7-6.5-8.1l-21.8,14.4l-1.5,1.3l1.1-1.6
	l9.6-19.2l-6.8-6.8l-19.2,9.6l-1.6,1.1l1.3-1.5l14.4-21.8c-2.5-2.2-5-4.1-8.1-6.5l-21.9,34.4c2.8,2.1,6.4,5.3,8.7,7.4l20.6-10.7
	l1.3-1l-1,1.3L254.6,100.2z"/>
<path class="st0" d="M176.5,56.6l9.4-21.1l0.6-1.9l-0.2,1.9l1,28.2c3.3,0.3,6.7,0.8,10.1,1.3l-1.5-41.7c-4.7-0.5-9.4-0.9-14.1-1.1
	l-9.3,23l-0.3,1.7l-0.3-1.7l-9.3-23c-4.7,0.2-9.4,0.6-14.1,1.1L147,65.1c3.4-0.6,6.8-1,10.1-1.3l1-28.2l-0.2-2l0.6,1.9l9.4,21.1
	L176.5,56.6z"/>
<path class="st0" d="M100.4,89.8c5.4-5.7,8.5-12.3,3.1-18.7c-3.1-3.3-7.9-4.3-12-2.5L91,68.8l0.1-0.4c1-3.8-0.3-7.9-3.4-10.4
	c-2.1-1.7-4.9-2.4-7.6-2.1c-5.1,0.5-9,4-19.8,16c-3.2,3.6-7.9,9.3-10.8,13L79,112.8C88.7,101.9,92.7,97.9,100.4,89.8z M62,83
	c4.7-5.8,9.7-11.3,15.1-16.4c0.9-0.9,1.9-1.6,3.1-2c2-0.4,3.9,0.8,4.4,2.7c0,0,0,0,0,0.1c0.4,2-0.8,3.9-2.2,5.4
	c-3.1,3.5-14.6,15.5-14.6,15.5L62,83z M73.5,93.9c0,0,11.2-11.8,14.8-15.6c1-1.1,2.1-2.1,3.4-2.9c1.2-0.7,2.8-0.7,4,0.1
	c1.2,0.8,1.8,2.3,1.5,3.7c-0.6,1.7-1.6,3.3-2.9,4.5c-1.6,1.7-14.8,15.8-14.9,15.9L73.5,93.9z"/>
<path class="st0" d="M273,172.3H172.2V71.5c55.7,0,100.8,45.1,100.9,100.8C273,172.3,273,172.3,273,172.3z"/>
<path class="st0" d="M172.2,172.3v100.9c-55.7,0-100.8-45.1-100.9-100.8c0,0,0-0.1,0-0.1H172.2z"/>
<path class="st1" d="M172.2,71.5v100.9H71.3c0-55.7,45.1-100.8,100.8-100.9C172.1,71.5,172.2,71.5,172.2,71.5z"/>
<path class="st1" d="M273,172.3c0,55.7-45.1,100.8-100.8,100.9c0,0-0.1,0-0.1,0V172.3H273z"/>
<path class="st0" d="M625.7,87.3l-99.2,170.1h115.7c16.1,0,31-8.6,39.2-22.5l86.1-147.6H625.7z M662.2,227.7
	c-4.6,7.8-12.9,12.6-22,12.6h-28l47.9-82.1c3.1-5.2,8.6-8.4,14.7-8.4h32.8L662.2,227.7z M704.6,138.3h-32.8l16.3-28h42.6l-11.5,19.6
	C716.2,135.1,710.6,138.3,704.6,138.3L704.6,138.3z"/>
<path class="st1" d="M625.7,87.3l-99.2,170.1h-70.9l86.1-147.6c8.1-13.9,23-22.5,39.2-22.5H625.7z"/>
</svg>
