<svg xmlns="http://www.w3.org/2000/svg" viewBox="0 0 100.09 13.95"><defs><style>.a{fill:#fff;}</style></defs><path class="a" d="M.26,9.86v-1H2.35L3,4.74H1v-1H3.13L3.66.42h1L4.15,3.77h3L7.64.42h1L8.13,3.77h2v1H8L7.35,8.89h2v1H7.21l-.52,3.38h-1l.52-3.38H3.24l-.53,3.38h-1l.53-3.38Zm6.07-1L7,4.74H4L3.37,8.89Z"/><path class="a" d="M13.15.42V5.13c.18-.1.86-.46,1.32-.66A4.78,4.78,0,0,1,16.41,4a2.57,2.57,0,0,1,2.53,1.47,7.13,7.13,0,0,1,.62,3.28A6,6,0,0,1,18.81,12a3.19,3.19,0,0,1-3,1.52,8.47,8.47,0,0,1-1.85-.21c-.58-.12-1.22-.29-1.8-.44V.42Zm1.1,12a7,7,0,0,0,1.51.17,2.3,2.3,0,0,0,2.15-1.07,5.18,5.18,0,0,0,.59-2.75A6.56,6.56,0,0,0,18.06,6,1.71,1.71,0,0,0,16.39,5a3.54,3.54,0,0,0-1.58.41c-.64.29-1.19.56-1.66.81V12.1C13.45,12.18,13.78,12.27,14.25,12.37Z"/><path class="a" d="M21.7,8.82a7.88,7.88,0,0,1,.44-2.89c.53-1.19,1.44-2,3.4-2a3.39,3.39,0,0,1,3,1.26,6.09,6.09,0,0,1,.81,3.52,7.2,7.2,0,0,1-.59,3.15,3.35,3.35,0,0,1-3.25,1.63,3.28,3.28,0,0,1-3.11-1.38A6.63,6.63,0,0,1,21.7,8.82Zm1.05,0a6.06,6.06,0,0,0,.51,2.71,2.26,2.26,0,0,0,2.28,1,2.34,2.34,0,0,0,2.24-1,5.92,5.92,0,0,0,.55-2.82,5.47,5.47,0,0,0-.46-2.58A2.29,2.29,0,0,0,25.54,5a2.3,2.3,0,0,0-2.38,1.27A6.32,6.32,0,0,0,22.75,8.78Z"/><path class="a" d="M31.86,4.26h1V5.38a8.64,8.64,0,0,1,1.21-.73,7.71,7.71,0,0,1,2-.59V5.11a7.38,7.38,0,0,0-1.67.51,8.87,8.87,0,0,0-1.53.89v6.73h-1Z"/><path class="a" d="M38.75,4.26v.67A8.88,8.88,0,0,1,42,4a2.49,2.49,0,0,1,2.19.82,4,4,0,0,1,.58,2.6v5.85h-1V7.39a3.33,3.33,0,0,0-.36-1.89A1.56,1.56,0,0,0,42,5a9,9,0,0,0-3.26,1v7.26h-1v-9Z"/><path class="a" d="M47.25,8.78a6.64,6.64,0,0,1,.59-3.19A3.31,3.31,0,0,1,51.09,4,3.27,3.27,0,0,1,54.23,5.5a4,4,0,0,1,.43,2,10,10,0,0,1-.17,1.74H48.3a5,5,0,0,0,.41,2.16c.46.83,1.19,1.15,2.6,1.15a15.9,15.9,0,0,0,2.89-.36v1a18.5,18.5,0,0,1-2.89.34c-2,0-2.85-.53-3.45-1.5A6.09,6.09,0,0,1,47.25,8.78Zm1-.47h5.24a7.32,7.32,0,0,0,.07-.89A3,3,0,0,0,53.32,6a2.37,2.37,0,0,0-2.23-1,2.36,2.36,0,0,0-2.38,1.21A5.38,5.38,0,0,0,48.3,8.31Z"/><path class="a" d="M57.09,13.24V.42h1V13.24Z"/><path class="a" d="M60.61,8.78a6.53,6.53,0,0,1,.6-3.19A3.28,3.28,0,0,1,64.45,4,3.29,3.29,0,0,1,67.6,5.5a4.06,4.06,0,0,1,.42,2,10,10,0,0,1-.17,1.74H61.66a5,5,0,0,0,.41,2.16c.46.83,1.19,1.15,2.6,1.15a15.9,15.9,0,0,0,2.89-.36v1a18.35,18.35,0,0,1-2.89.34c-2,0-2.85-.53-3.45-1.5A6.19,6.19,0,0,1,60.61,8.78Zm1-.47H66.9A7.32,7.32,0,0,0,67,7.42,3,3,0,0,0,66.68,6a2.92,2.92,0,0,0-4.61.16A5.56,5.56,0,0,0,61.66,8.31Z"/><path class="a" d="M70.49,5.89C71,4.64,71.81,4,73.85,4a11,11,0,0,1,2.67.53v1A12.26,12.26,0,0,0,73.85,5c-1.27,0-1.92.27-2.34,1.24a7.36,7.36,0,0,0-.34,2.58,6.29,6.29,0,0,0,.51,2.74,2.14,2.14,0,0,0,2.17,1,12.51,12.51,0,0,0,2.67-.44v1a13.18,13.18,0,0,1-2.67.43c-1.66,0-2.46-.43-3.06-1.43a7,7,0,0,1-.68-3.28A8.83,8.83,0,0,1,70.49,5.89Z"/><path class="a" d="M79.68,2V4.38H82.4v1H79.68V9.84a12,12,0,0,0,0,1.49.85.85,0,0,0,.62.8,7.64,7.64,0,0,0,1.66.24v1a10.36,10.36,0,0,1-2.19-.31,1.35,1.35,0,0,1-1-.9,7.56,7.56,0,0,1-.17-2.31V2Z"/><path class="a" d="M84.05,4.26h1V5.38a8.64,8.64,0,0,1,1.21-.73,7.71,7.71,0,0,1,2-.59V5.11a7.38,7.38,0,0,0-1.67.51,8.87,8.87,0,0,0-1.53.89v6.73h-1Z"/><path class="a" d="M89.87,2.67V.42H91V2.67Zm0,10.57v-9h1v9Z"/><path class="a" d="M93.79,5.89C94.29,4.64,95.12,4,97.16,4a11,11,0,0,1,2.67.53v1A12.51,12.51,0,0,0,97.16,5c-1.28,0-1.92.27-2.35,1.24a7.61,7.61,0,0,0-.34,2.58A6.29,6.29,0,0,0,95,11.52a2.16,2.16,0,0,0,2.18,1,12.51,12.51,0,0,0,2.67-.44v1a13.3,13.3,0,0,1-2.67.43c-1.67,0-2.47-.43-3.06-1.43a7,7,0,0,1-.68-3.28A8.85,8.85,0,0,1,93.79,5.89Z"/></svg>