<?xml version="1.0" encoding="utf-8"?>
<!-- Generator: Adobe Illustrator 25.2.1, SVG Export Plug-In . SVG Version: 6.00 Build 0)  -->
<svg version="1.1" id="Layer_1" xmlns="http://www.w3.org/2000/svg" xmlns:xlink="http://www.w3.org/1999/xlink" x="0px" y="0px"
	 viewBox="0 0 107.6 107.6" style="enable-background:new 0 0 107.6 107.6;" xml:space="preserve">
<style type="text/css">
	.st0{fill:#EDEDED;}
</style>
<g>
	<path class="st0" d="M53.8,1.4c-29,0-52.4,23.5-52.4,52.4s23.5,52.4,52.4,52.4s52.4-23.5,52.4-52.4S82.7,1.4,53.8,1.4z M53.8,17.8
		c6.3,0,11.5,5.1,11.5,11.5s-5.1,11.5-11.5,11.5s-11.5-5.1-11.5-11.5S47.5,17.8,53.8,17.8z M53.8,89.8c-19.9,0-36-16.1-36-36
		c0-3.3,0.5-6.6,1.3-9.6c1.2-0.1,2.4-0.2,3.6-0.2c13.8,0,25.6,8.1,31.1,19.7C59.3,52,71.2,44,84.9,44c1.2,0,2.4,0.1,3.6,0.2
		c0.8,3.1,1.3,6.3,1.3,9.6C89.8,73.7,73.7,89.8,53.8,89.8z"/>
</g>
</svg>
